<svg width="953" height="950" viewBox="0 0 953 950" fill="none" xmlns="http://www.w3.org/2000/svg">
<path d="M462.307 440.328C435.282 337.434 410.179 230.015 409.012 123.053C408.783 102.1 411.094 82.3571 415.007 62.0889C421.506 28.5448 441.186 -1.93735 478.967 0.0963156C536.221 3.13539 541.393 71.8689 543.109 115.833C543.315 227.479 517.32 335.743 489.31 443.528C547.869 340.633 616.016 233.077 707.002 152.644C751.327 113.456 829.291 103.379 828.239 187.834C821.763 227.227 780.481 265.616 755.195 290.591C682.356 362.546 593.774 404.18 512.125 460.414C616.794 433.93 808.307 384.483 912.931 421.431C934.235 428.972 945.151 445.081 953 465.418V484.886C918.446 600.143 592.126 509.588 508.166 488.405C614.781 549.233 740.412 626.626 813.731 726.367C822.449 738.227 833.685 772.479 827.392 786.898C785.721 882.366 687.322 785.938 648.305 739.712C585.284 665.197 536.13 588.124 489.379 506.411C520.569 624.318 555.695 765.967 537.434 887.964C535.009 904.073 521.645 935.013 505.306 942.21C424.984 977.56 407.639 884.468 408.989 826.04C410.797 715.559 436.014 613.19 461.987 508.765C435.305 554.351 229.948 915.293 135.049 807.714C65.7763 729.224 304.891 572.837 356.929 541.007C375.442 529.673 413.886 507.6 438.737 490.096C323.839 518.248 175.187 556.979 59.6939 535.385C-27.2431 519.139 -19.9203 415.262 86.2595 410.006C209.536 403.905 326.287 429.68 442.856 461.602C345.533 398.764 213.311 328.111 145.462 233.58C80.8108 143.481 171.778 75.9362 262.831 167.52C351.116 256.316 397.89 336.771 462.307 440.328Z" fill="black"/>
</svg>
