<svg width="951" height="950" viewBox="0 0 951 950" fill="none" xmlns="http://www.w3.org/2000/svg">
<path d="M420.435 0.30688C456.492 0.26119 494.806 -0.401513 530.674 0.375201C530.741 59.2227 528.325 140.526 531.095 196.884C556.466 141.783 582.279 65.8479 607.796 15.4528C636.636 26.3725 681.876 44.5796 709.343 57.9893C685.238 117.042 660.792 175.959 636.008 234.738C651.825 222.264 667.997 204.217 682.614 189.939C712.734 160.516 742.155 128.784 772.878 100.069C797.55 124.284 827.395 152.794 850.664 178.037C804.78 225.348 755.655 271.723 710.534 318.92C762.784 296.829 842.148 261.648 894.613 243.441L936.593 344.94C876.929 370.685 815.355 394.124 756.215 420.007C817.594 420.007 890.288 418.362 950.836 420.327L951 530.072L752.236 530.14C804.654 552.345 886.599 583.322 935.306 607.401C923.44 638.446 907.321 678.104 893.478 708.373C839.721 689.435 767.784 657.201 714.032 634.357C757.481 680.115 809.382 726.992 850.669 772.292C824.959 798.586 798.93 824.56 772.585 850.215C727.669 805.303 678.648 754.108 632.694 710.955L707.682 893.62C673.805 908.034 639.797 922.13 605.664 935.928C580.352 876.76 556.521 813.595 530.661 755.524C530.711 818.552 532.032 887.406 530.654 950L420.506 949.84L420.257 752.852C396.803 807.61 368.36 883.774 343.727 934.945C315.072 924.094 268.662 905.453 241.369 892.249L316.836 712.463C275.947 753.4 220.238 812.704 178.27 850.261C152.939 824.903 124.938 797.901 100.417 772.087C142.715 729.801 200.325 675.454 239.532 631.958C180.305 656.402 115.652 681.714 57.4377 707.368C42.8435 673.558 28.7429 639.52 15.1401 605.276C73.8567 579.142 136.948 556.594 194.349 530.369C130.127 530.14 64.0292 530.917 0 529.98V420.372C65.7693 419.755 133.264 421.012 198.603 419.824C148.226 398.761 60.4647 365.271 15.5199 342.587C28.7699 310.878 43.9511 271.677 58.2461 241.043C115.287 264.801 180.196 293.516 237.297 315.401C193.82 271.563 142.063 222.356 100.47 177.717C125.095 153.045 153.433 123.187 178.607 99.7718L318.902 239.878C298.343 189.871 260.854 105.894 244.043 56.3443L345.994 14.0593L420.312 195.079L420.435 0.30688Z" fill="black"/>
</svg>
