<svg width="950" height="950" viewBox="0 0 950 950" fill="none" xmlns="http://www.w3.org/2000/svg">
<path d="M0.191243 0C244.179 3.44602 440.646 175.934 470.569 418.231C471.802 428.232 473.011 438.248 474.197 448.262C478.014 413.146 482.211 381.935 491.885 347.88C551.47 138.194 734.019 2.49632 949.929 0.345813C950.142 123.905 901.867 242.628 815.418 331.014C744.879 403.12 619.591 470.53 518.133 471.553L508.767 476.301C611.6 479.894 727.736 532.764 800.788 603.773C903.195 703.289 945.614 810.179 950 949.95C845.934 947.816 754.552 919.663 669.858 858.277C582.389 794.47 519.342 702.753 491.126 598.291C482.923 567.307 479.081 534.379 474.007 502.569C450.652 767.24 262.176 936.055 0.0110681 950C-1.0654 788.842 76.4306 645.865 210.225 555.164C288.921 501.823 355.999 485.915 448.565 474.288C325.199 461.513 226.064 423.209 137.099 333.939C48.4188 245.508 -0.92079 125.16 0.191243 0Z" fill="black"/>
</svg>
