<svg width="226" height="216" viewBox="0 0 226 216" fill="none" xmlns="http://www.w3.org/2000/svg">
<path d="M4.27709 77.5133C-27.0868 205.399 121.55 262.088 205.245 170.587C248.403 136.416 212.059 85.0582 203.148 42.8473C176.793 -13.4048 105.474 -1.86879 55.764 8.93883C46.5907 10.4536 43.8242 18.0276 45.5424 25.0191C20.4978 30.0879 10.8294 55.6941 4.27709 77.5133ZM35.5246 99.8276C38.757 72.0657 48.1051 38.2446 81.4493 36.7006C84.1576 36.1763 85.8466 34.3994 86.6329 32.2145C136.664 13.2502 185.85 23.8538 190.364 84.5629C192.635 99.1867 199.159 119.345 188.034 131.726C145.546 172.947 36.4855 176.326 35.4954 99.8276H35.5246Z" fill="black"/>
</svg>
