<svg id="Layer_1" data-name="Layer 1" xmlns="http://www.w3.org/2000/svg" viewBox="0 0 11.94479 33.9494"><path d="M6.39945,22.71913c-.01928-.24335-.06775-.251-.03491.31189a1.29135,1.29135,0,0,0,1.92371.94506,1.55343,1.55343,0,0,0,.64489-.84173,1.44952,1.44952,0,0,0,.40662-1.634C10.20414,17.16841,12.61332,3.16609,6.86222.4159.34721-2.23833-1.02181,8.51765.65214,12.69844A26.13177,26.13177,0,0,0,4.76835,20.1529c.54688.60327,1.06592,1.43653,1.63733,2.14209C6.39042,22.439,6.40116,22.57759,6.39945,22.71913ZM2.8289,7.55952c.46814-5.06,2.634-6.13416,4.12353-3.39148,1.58789,4.14246.803,9.94043.33972,13.8678a4.25964,4.25964,0,0,1-.11.67364C4.575,15.26985,2.4141,11.71491,2.8289,7.55952Zm8.59716,21.7727a1.35657,1.35657,0,0,0-.94873-1.61236c-1.42419-.54059-3.22192-1.06818-4.54174-.0177-1.76661,1.34009-1.2566,4.08008.33667,5.35248,2.07336,1.88855,5.7063.63171,5.6687-2.31049A1.80787,1.80787,0,0,0,11.42606,29.33222ZM9.149,30.96968c-.04163.038-.087.08239-.12989.12616-.06433.042-.12939.08215-.19714.1181-.037.01-.06372.01794-.11646.03082-.52295.15662-1.23986-.45764-1.31018-.95154l.00147-.01916c.021-.1073.052-.25238.0874-.37512.01563-.01612.03137-.0318.04785-.04706L7.535,29.85l.01087-.00544c.03942-.01324.07788-.02887.11816-.039l.0094-.00073a3.33148,3.33148,0,0,1,.46509.02313,3.42768,3.42768,0,0,1,.49231.12689c.15612.046.31567.10669.4768.16779a1.9884,1.9884,0,0,0,.08167.62592c.00024.02642.00036.05236.00024.07421C9.17826,30.87251,9.16459,30.92121,9.149,30.96968Z"/></svg>