<svg id="Layer_1" data-name="Layer 1" xmlns="http://www.w3.org/2000/svg" viewBox="0 0 27.63912 28.40238"><path d="M14.75514,24.03076c.26978-.36.15357-.19831,0,0ZM27.4546,9.55066c-.55786,3.03649-2.32751,5.67767-4.14794,8.108-2.18995,2.8612-5.01978,6.32318-6.54493,8.30578a9.79546,9.79546,0,0,0-.74926.92133,1.32851,1.32851,0,0,1-.5531.68744,2.95976,2.95976,0,0,1-1.00928.77868,1.41137,1.41137,0,0,1-1.76843-1.347,1.77367,1.77367,0,0,1,.06994-.32123,48.16706,48.16706,0,0,1-4.76819-3.717C3.31081,18.74261-1.6931,13.26336.55507,6.48547,1.29665,4.43164,2.054,2.14624,3.895.81518c4.39576-2.57837,8.8772,1.42816,10.64283,5.48462.35278-.407.7196-.80194,1.10351-1.17627,2.104-1.79175,4.64356-4.04333,7.59326-3.70892C26.84523,2.02948,28.16347,6.36029,27.4546,9.55066ZM23.79884,4.71447c-1.06567-1.49371-4.43811.31177-7.457,3.74317a14.775,14.775,0,0,0-.96094,1.478,1.47313,1.47313,0,0,1-1.614.65966c-1.11694-.32306-1.10669-1.66626-1.53735-2.557-.05176-.1261-.08155-.19953-.1012-.24866l-.07068-.16388c-1.1604-3.00659-3.68689-4.697-4.65686-4.76556C4.799,2.52362,4.298,4.21057,3.05983,7.89465,1.35329,13.95233,8.23585,20.01208,14.42848,24.456c.054-.07056.11023-.1402.15747-.21338.0481-.0567.1106-.13611.16919-.21185l-.02344.03131C19.86281,17.37945,27.794,9.33532,23.79884,4.71447Z"/></svg>