<svg id="Layer_1" data-name="Layer 1" xmlns="http://www.w3.org/2000/svg" viewBox="0 0 36.43164 21.63925"><path d="M34.91112,8.37215a28.073,28.073,0,0,1-12.256,10.59113c-6.9439,3.24139-15.3573,3.98163-22.04235-.28223a1.24753,1.24753,0,0,1,1.25885-2.15344A19.67441,19.67441,0,0,0,8.515,18.90414c6.562.65179,12.1546-1.45374,17.5935-5.04126,1.55518-.80793,5.3086-5.252,6.20484-6.4729.49145-.62622.93335-1.22724,1.46313-1.895-.05176.06305-.0686.07953.05847-.07819.00794-.00806.01282-.01556.02063-.02356.02149-.02673.03809-.0498.05982-.07684-.01319.01861-.03125.04162-.0481.06354.57886-.60981.462-1.10926,1.70581-1.00586C37.48424,5.21358,35.72374,6.95815,34.91112,8.37215Zm-23.84131.38617c1.46051-.05035,1.38427-1.53973,1.19293-2.612-.18036-1.2127-.1507-2.48858-.44074-3.67047a1.33128,1.33128,0,0,0-2.548.51294c.15826,1.4848.30084,2.97144.48016,4.45392A1.32346,1.32346,0,0,0,11.06981,8.75832Zm8.17474-1.3612c.39392-1.12519.11023-.55762.08325-1.6366-.15484-1.45709-.32458-2.91266-.47449-4.3703A1.40076,1.40076,0,0,0,18.4442.40243a1.40837,1.40837,0,0,0-2.38465.98779c.214,1.89478.38074,3.79657.68323,5.68A1.3794,1.3794,0,0,0,19.24455,7.39712Z"/></svg>