<svg width="1220" height="923" viewBox="0 0 1220 923" fill="none" xmlns="http://www.w3.org/2000/svg">
<path d="M1071.14 515.216C1076.8 510.535 1082.6 503.236 1089.85 505.994C1109.04 514.775 1089.59 560.68 1087.89 577.437C1069.47 654.398 1137.95 724.69 1205.09 750.07L1205.07 750.102C1218.82 753.806 1228.18 779.943 1209.64 782.591C1199.15 781.819 1190.78 774.552 1180.17 774.047C1163.45 767.71 1154.91 757.4 1135.13 761.073C1108.85 764.132 1084.09 777.042 1057.68 779.659C1053.63 779.833 1052.82 779.659 1049.89 782.591C1046.77 785.319 1041.6 792.98 1037.71 787.652C991.908 822.049 960.575 872.289 930.409 920.117C924.656 927.511 914.648 919.203 916.114 911.794C921.678 883.639 928.707 855.784 933.892 827.551C940.464 796.338 955.295 785.854 932.899 754.673C918.478 733.518 903.49 712.914 889.399 691.554C882.181 681.969 871.952 676.073 863.898 667.45C857.358 656.983 848.878 647.335 842.842 636.821C835.308 634.235 827.759 631.729 820.052 629.632C815.245 628.324 817.372 621.561 822.069 622.318C848.547 626.558 875.293 631.965 902.04 634.22C977.707 645.964 1024.94 575.782 1066.3 524.155C1062.94 520.702 1065.94 511.985 1071.14 515.216ZM1081.29 559.214C1032.02 621.861 949.779 678.375 868.122 645.302C876.68 660.388 895.326 661.476 906.957 673.252C922.277 687.818 933.829 705.867 948.077 721.553C961.08 738.925 964.846 761.735 963.68 782.922C969.858 814.419 966.848 831.034 953.483 860.23C964.2 847.335 973.436 833.541 983.649 820.205C1003.7 795.959 1028.02 773.984 1056.35 760.033C1088.19 740.454 1072.81 730.491 1119.57 731.799C1066.13 676.184 1058.77 631.429 1081.29 559.214ZM185.489 457.772C251.291 409.203 204.166 175.295 252.347 221.484C268.564 304.103 244.419 393.06 212.298 469.374C200.588 509.714 167.742 540.659 137.324 568.01C121.295 583.144 98.8833 584.389 80.8214 595.692C134.865 588.094 197.278 610.242 244.482 635.749C286.012 668.68 313.499 717.249 341.6 761.53C328.802 654.65 361.601 566.733 451.532 504.765C432.209 504.087 416.921 490.53 398.796 485.39C357.03 472.574 307.163 464.976 284.467 422.145C275.074 410.59 267.304 397.789 268.218 382.388C264.687 374.616 246.405 251.089 268.564 272.197C271.212 287.929 273.167 304.434 278.494 319.521C286.264 341.512 302.214 360.76 303.806 384.737C309.889 392.981 324.405 409.092 332.112 419.15C340.355 426.307 351.262 431.004 355.596 441.724C377.251 464.409 412.729 462.533 439.002 478.092C479.444 485.28 522.204 452.349 561.685 464.125C587.39 489.521 513.803 496.031 499.161 500.508C381.113 569.807 354.619 689.662 381.57 816.531C382.058 830.183 362.925 834.881 356.195 823.405C327.731 770.469 300.433 715.83 258.225 671.975L258.194 671.99C227.555 641.518 150.153 627.031 107.363 625.139C76.7237 626.731 46.9199 635.165 16.3912 637.908C7.53365 638.712 5.25612e-05 629.774 0 621.514C1.84402 598.672 31.3483 605.97 47.1721 600.8C62.3656 583.948 76.4715 565.63 97.0078 555.226C135.212 532.194 151.572 485.879 185.489 457.772ZM843.882 3.56072C846.672 -0.537948 851.589 -0.821712 854.883 1.30644C863.426 2.55194 857.31 28.5942 856.286 35.5146C853.701 44.7996 848.941 53.5487 854.111 62.4869C861.014 79.591 861.44 99.4222 871.306 115.502C879.533 127.608 892.457 136.089 903.553 145.311C916.414 156 926.942 169.131 940.181 179.441C946.075 184.028 956.052 187.418 959.141 194.701C966.328 195.284 980.56 205.783 969.26 211.379C917.013 213.286 845.726 200.785 817.309 257.568C810.706 278.25 805.568 299.595 793.715 318.275C784.968 333.503 773.353 377.028 753.084 346.666H753.1C750.625 339.872 751.807 333.377 754.849 327.513C751.145 313.436 757.371 297.23 756.567 282.459C754.455 281.75 752.832 279.921 752.974 276.91C753.352 268.997 749.963 262.092 749.317 254.257C748.671 246.312 748.261 239.928 745.566 232.314C739.971 220.081 743.186 204.616 733.698 194.401C715.873 177.013 701.577 154.14 676.959 145.989C671.947 141.97 664.051 142.111 658.188 139.826C647.171 136.547 651.868 119.395 662.932 122.595C677.196 126.521 692.184 129.153 703.847 139.022C722.681 136.074 744.683 133.457 757.859 117.898C773.037 104.057 787.443 89.5223 801.549 74.5937C817.593 52.2875 826.561 25.2836 843.882 3.56072ZM845.222 36.7285C838.271 45.3199 833.117 54.2423 827.79 63.9056C817.372 83.3112 799.831 97.2152 784.621 112.68C763.187 132.748 751.823 147.976 720.317 152.279C724.778 156.236 729.017 160.414 733.099 164.859V164.843C769.554 188.915 760.996 206.965 771.319 244.326C779.31 259.822 768.987 276.784 769.995 293.415C771.493 293.132 773.006 293.872 773.652 294.913C783.802 281.955 788.94 266.979 795.244 252.113C820.399 212.64 870.691 195.079 915.956 193.944C873.418 150.766 834.016 136.263 840.068 66.4753C836.758 56.3547 841.676 46.0923 845.222 36.7285Z" fill="black"/>
</svg>
