<svg width="1383" height="974" viewBox="0 0 1383 974" fill="none" xmlns="http://www.w3.org/2000/svg">
<path d="M1186.52 974H0V973.997H1186.51L1186.52 974ZM0 0C235.615 4.09394 434.601 110.824 534.795 329.454C703.493 337.128 891.282 392.013 1030.91 489.345C1081.82 525.508 1128.53 567.25 1170.19 613.768C1248 699.19 1307.32 800.113 1354.69 905.143C1362.91 923.35 1377.21 955.227 1383 973.997H1186.51C1128.45 837.641 1023.63 693.947 895.443 617.875C801.127 561.901 681.509 525.044 572.653 514.546C570.456 596.939 555.132 666.176 513.718 738.825C468.893 815.389 407.896 874.081 320.438 897.256C101.087 955.385 -49.5858 716.884 56.4599 530.382C114.229 428.788 230.269 375.71 339.072 347.388C254.482 226.916 142.048 190.633 0 180.602V0ZM390.316 523.055C388.563 522.839 388.39 522.599 386.76 522.946C318.18 539.466 182.05 587.983 206.83 683.101C209.675 694.018 214.899 704.529 223.344 712.238C236.832 722.113 247.937 725.884 264.883 723.227C298.036 718.044 323.999 696.1 342.801 669.43C372.866 627.401 389.068 576.443 391.106 524.994C390.843 524.347 390.579 523.701 390.316 523.055Z" fill="black"/>
</svg>
