<svg width="2836" height="2200" viewBox="0 0 2836 2200" fill="none" xmlns="http://www.w3.org/2000/svg">
<path d="M840.491 0.463791C1006.95 -5.94991 1169.08 54.3716 1290.77 168.088C1558.21 421.522 1575.06 884.056 1584.3 1229.19C1672.13 1226.37 1760.01 1226.16 1847.88 1228.54C2033.38 1232.22 2347.69 1252.94 2491.71 1122.89C2581.14 1042.11 2591.68 919.64 2596.23 807.313C2673.05 810.043 2758.14 809.043 2836 810.473C2810.46 1607.74 2132.27 1446.23 1578.72 1470.37C1565.8 1612.34 1536.06 1755 1465.05 1880.29C1388.45 2012.72 1272.86 2145.99 1118.29 2184.47C885.801 2242.37 692.367 2135.8 628.275 1907.85C556.068 1469.89 1003.85 1313.92 1347.3 1257.36C1345.48 1154.31 1338.67 1051.86 1331.17 945.991C1321.41 662.309 1204.15 198.902 830.476 240.5C474.021 280.154 302.063 863.814 259.564 1154.95C237.273 1307.63 235.081 1437.9 250.418 1583.9C172.131 1597.68 93.6497 1610.39 15.0023 1621.96C10.9532 1595.13 7.71966 1568.13 5.31363 1541.09C-39.7236 1036.51 198.888 56.717 822.33 1.24581C828.38 0.942541 834.436 0.680427 840.491 0.463791ZM1328.05 1504.52C1170.23 1533.64 824.476 1625.47 860.965 1848.7C865.565 1876.82 879.713 1901.52 898.459 1922.8C917.261 1938.23 938.352 1951.8 962.174 1956.57C1160.58 1996.43 1296.93 1729.39 1324.76 1567.06C1327.84 1548.9 1334.46 1524.27 1332.17 1507.42L1328.05 1504.52Z" fill="black"/>
</svg>
