<svg width="2383" height="2608" viewBox="0 0 2383 2608" fill="none" xmlns="http://www.w3.org/2000/svg">
<path d="M924.037 0.34465C1107.37 -5.46487 1285.4 62.3707 1418.35 188.7C1723.02 481.543 1732.78 1008.75 1740.21 1402.4C1892.02 1448.64 2011.91 1518.63 2124.41 1629.73C2383.07 1885.15 2383.02 2156.66 2383 2497.53L2161.77 2498.49C2161.97 2334.37 2168.74 2126.92 2101.94 1975.12C2033.52 1819.66 1890.03 1695.9 1734.25 1633.45C1733.87 1727.33 1730.9 1821.35 1728.97 1915.2C1724.3 2142.68 1681.75 2377.69 1482.34 2517.81C1375.83 2593.56 1243.33 2623.35 1114.63 2600.49C988.341 2577.27 876.376 2505.02 803.224 2399.52C697.301 2247.18 684.612 2074.34 716.779 1896.77C813.734 1497.29 1137.28 1357.02 1519.99 1361.58C1513.29 1293.48 1516.69 1193.41 1511.64 1118.32C1494.55 863.875 1454.06 513.464 1249.43 333.971C1157.45 254.721 1038.27 214.291 917.041 221.215C638.451 239.854 464.642 465.633 360.447 701.084C206.55 1048.86 210.267 1364.77 236.262 1731.47C186.604 1741.36 74.6436 1749.62 18.4758 1756.23C15.5349 1730.32 13.0537 1704.37 11.0502 1678.38C-20.27 1294.79 9.50091 936.021 171.753 581.732C316.247 266.211 550.733 30.2322 910.857 0.905081C915.526 0.577989 919.347 0.454796 924.037 0.34465ZM1516.16 1584.51C1489.29 1582.97 1465.89 1581.46 1438.86 1582.26C1389.28 1584.85 1354.23 1588.88 1305.78 1597.8C1064.4 1642.26 907.1 1834.82 921.845 2082.68C927.385 2175.77 960.193 2263.51 1033.58 2326.78C1038.99 2331.49 1044.64 2335.93 1050.5 2340.05C1115.95 2381.87 1180.98 2398.15 1258.42 2380.58C1332.24 2363.1 1395.95 2316.71 1435.21 2251.82C1535.34 2089.14 1503.92 1777.78 1516.16 1584.51Z" fill="black"/>
</svg>
