<svg width="1984" height="2251" viewBox="0 0 1984 2251" fill="none" xmlns="http://www.w3.org/2000/svg">
<path d="M1305.85 0.066409C1468.92 -2.31418 1626.41 59.3909 1744.41 171.941C1918.29 335.061 1976.25 537.439 1984 768.215L1791.12 768.356C1788.5 678.007 1780.55 615.742 1751.21 530.541C1664.97 280.05 1413.62 122.283 1151.91 223.347C1055.9 260.432 1010.2 299.693 966.803 393.369C1045.34 403.49 1104.79 412.592 1178.06 451.884C1307.44 521.258 1452.28 691.905 1366.3 843.502C1290.49 977.134 1099.06 967.402 980.593 897.505C862.075 827.572 803.1 743.557 766.853 612.2C546.672 692.464 447.064 840.211 550.709 1067.62C576.031 1060.34 601.518 1053.62 627.155 1047.53C951.07 971.044 1433.54 953.434 1732.53 1119.35C1973.49 1264.93 1893.87 1581.5 1624.43 1623.49C1286.98 1676.09 889 1576.45 606.079 1393.13C558.973 1359.47 528.407 1334.61 486.359 1294.83C307.046 1369.07 161.424 1501.83 199.58 1715.23C213.043 1790.52 276.848 1868.45 342.394 1907.36C619.622 2072.05 995.21 2082.62 1305.12 2027.04C1502.77 1987.86 1694.3 1897.55 1806.58 1727.81L1968.78 1834.58C1677.2 2295.68 893.612 2321.14 431.559 2163.83C248.105 2101.46 56.3294 1971.93 13.4115 1769.48C-49.0351 1474.87 112.839 1256.66 369.079 1135.04C354.925 1106.64 340.581 1069.73 333.143 1038.78C254.266 710.716 462.907 490.369 762.175 412.801C818.616 136.747 1040.72 11.1324 1305.85 0.066409ZM1066.24 1185.3C1052.27 1185.2 1031.14 1186.5 1018.95 1187.62C929.159 1193.5 794.189 1206.91 707.7 1228.34C920.036 1364.32 1130.42 1421.12 1381.84 1443.78C1453.72 1447.21 1669.81 1460.56 1682.47 1355.99C1684.37 1340.23 1670.86 1316.63 1658.8 1306.26C1512.75 1193.54 1245 1186.56 1066.24 1185.3ZM962.177 587.555C978.922 683.47 1097.56 768.354 1196.15 750.67C1199.46 736.313 1191.06 720.028 1183.06 708.226C1145.13 652.267 1076.06 609.995 1011.28 595.076C995.095 591.505 978.688 588.991 962.177 587.555Z" fill="black"/>
</svg>
