<svg width="2289" height="2250" viewBox="0 0 2289 2250" fill="none" xmlns="http://www.w3.org/2000/svg">
<path d="M698.01 0.622642C994.069 -12.4584 1206.19 181.677 1219.3 478.931C1229.57 711.625 1085.11 886.491 887.233 988.13C635.793 1117.26 235.865 1222.49 227.643 1572.35C222.967 1771.43 380.944 1908.91 576.567 1896.17C740.78 1885.93 840.039 1797.01 944.351 1681.75C916.747 1644.1 892.706 1607.44 867.101 1568.36L1054.9 1450.94L1108.15 1533.03C1151.73 1504.57 1191.28 1476.56 1236.7 1450.06C1535.71 1275.49 2047.04 1302.51 2232.95 1630.91C2346.1 1830.82 2285.16 2075.06 2075.3 2182.49C1910.32 2266.94 1754.44 2266.02 1580.68 2213.58C1350.67 2119.14 1256.63 2038.37 1083.45 1857C990.777 1957.71 908.099 2025.5 778.076 2076.26C633.532 2132.65 459.937 2132.17 317.88 2068.34C190.811 2012.55 91.4383 1908.16 42.0273 1778.55C4.54302 1678.55 -2.03914 1556.46 18.3281 1451.7C70.9492 1180.97 308.825 1014.5 543.148 901.966C694.578 829.245 895.15 775.383 978.422 608.907C1011.16 536.372 1002.13 445.366 975.757 374.066C921.502 227.384 729.289 187.112 596.659 247.805C398.9 338.302 282.578 569.23 206.078 761.362C150.404 735.336 58.9619 702.526 0 679.445C122.626 380.967 310.075 52.0251 662.075 3.31714C674.029 2.12222 686.012 1.22214 698.01 0.622642ZM2021.92 1711.98C1944.82 1593.6 1735.4 1553.27 1599.11 1566.29C1455.32 1580.2 1363.7 1621.85 1246.27 1706.58C1375.69 1845.14 1528.92 1984.07 1721.24 2022.44C1921.92 2054.89 2173.68 1944.98 2021.92 1711.98Z" fill="black"/>
</svg>
