<svg width="1597" height="1690" viewBox="0 0 1597 1690" fill="none" xmlns="http://www.w3.org/2000/svg">
<path d="M1299.11 0C1296.95 282.01 1213.3 508.203 1007.52 705.113C870.339 836.378 706.226 936.645 510.084 931.431C496.365 931.066 482.559 930.313 468.949 930.116C404.071 1029.64 326.275 1155.48 351.32 1279.29C365.272 1348.25 412.43 1402.63 470.216 1440.14C486.348 1450.61 502.658 1459.06 520.139 1467.08C524.766 1469.2 546.677 1476.81 549.154 1478.34C572.652 1485.85 592.515 1490.31 616.443 1495.89C627.534 1496.12 653.186 1500.8 667.226 1501.81C722.882 1506.05 778.816 1498.76 831.518 1480.37C880.031 1463 925.089 1437.2 964.614 1404.15C1124.72 1272.74 1157.63 1070.4 1241.81 893.628C1315.14 739.634 1433.27 617.809 1596.47 560.766V764.052C1576.14 773.799 1546.93 796.252 1529.8 811.033C1425.33 900.926 1380.35 1037.08 1334.11 1162.95C1248.24 1396.7 1104.89 1599.46 851.478 1668.93C589.648 1740.7 250.966 1620.29 174.333 1338.9C129.359 1173.77 194.335 1027 275.433 887.212C249.053 878.573 223.434 864.434 199.303 850.863C18.2824 749.056 -59.8397 501.195 51.5787 318.196C102.058 235.396 183.113 175.799 277.202 152.298C362.544 131.556 456.576 143.585 531.843 189.678C608.167 235.765 663.023 310.314 684.318 396.888C714.851 524.268 667.482 630.592 602.492 736.606C709.575 713.34 812.809 637.233 889.141 560.592C1051.36 397.714 1112.88 225.728 1113.08 0H1299.11ZM441.811 353.139C418.251 335.832 374.387 324.91 345.021 329.348C297.338 334.724 253.714 358.736 223.667 396.146C156.557 480.538 185.19 610.717 268.079 672.638C298.601 695.438 321.647 706.05 357.161 719.147C365.817 721.845 374.661 724.72 383.367 727.182C452.848 625.455 589.076 461.315 441.811 353.139ZM1596.47 560.766H1596.47V0H1596.47V560.766Z" fill="black"/>
</svg>
