<svg width="2484" height="1823" viewBox="0 0 2484 1823" fill="none" xmlns="http://www.w3.org/2000/svg">
<path fill-rule="evenodd" clip-rule="evenodd" d="M689.889 45.613C945.29 -43.9129 1220 6.68948 1428.16 124.947C1528.06 181.702 1616.71 256.689 1680.61 342.958C1773.74 318.906 1871.38 312.88 1964.25 324.654C2096.69 341.445 2224.76 394.712 2321.23 488.544C2418.6 583.249 2480.37 716.093 2483.76 884.146C2494.16 1400.43 2165.97 1723.55 1995.34 1823L1933.25 1716.53C2076.04 1633.31 2369.79 1346.94 2360.51 886.629C2357.75 749.496 2308.35 647.961 2235.27 576.872C2161.28 504.911 2059.61 460.968 1948.74 446.912C1881.12 438.339 1812.02 440.981 1745.74 454.218C1772.47 515.242 1786.52 579.797 1784.23 646.003C1780.52 753.279 1731.52 842.524 1667.15 906.98C1603.42 970.799 1521.66 1013.43 1445.17 1026.58C1371.43 1039.26 1281.47 1025.99 1237.39 946.942C1196.22 873.127 1213.8 771.34 1273.11 654.611C1335.92 530.977 1438.83 441.832 1558.04 386.6C1509.23 329.12 1444.57 276.019 1367.25 232.093C1183.92 127.938 946.299 86.3265 730.678 161.908C681.858 179.021 643.153 200.096 612.734 223.434C616.283 227.008 619.607 230.527 622.693 233.983C665.922 282.399 699.194 355.508 713.018 427.335C726.482 497.293 724.606 583.695 674.043 646.482C624.34 708.199 534.629 707.502 481.77 657.451C412.087 591.472 371.832 471.077 394.272 352.119C401.374 314.47 414.6 277.379 434.628 242.189C396.646 218.698 351.495 195 303.894 175.792C253.326 155.386 203.861 141.68 161.254 138.022C117.912 134.3 88.9838 141.505 71.4303 153.98L0 53.5406C50.8924 17.3693 113.618 10.2399 171.803 15.236C230.724 20.2952 292.661 38.359 350.036 61.5116C407.627 84.7513 464.603 114.8 513.154 146.004C558.31 105.793 616.688 71.2721 689.889 45.613ZM1626.73 490.909C1522.53 535.451 1434.22 609.647 1383.02 710.421C1327.64 819.397 1335.67 870.093 1345.06 886.928C1351.53 898.534 1372.24 914.075 1424.27 905.127C1473.56 896.652 1532.67 867.215 1579.91 819.91C1626.52 773.243 1658.59 712.309 1661.03 641.743C1662.74 592.168 1650.72 541.005 1626.73 490.909ZM533.475 319.218C524.654 337.941 518.85 356.723 515.41 374.956C499.988 456.711 530.123 533.497 566.539 567.977C568.485 569.82 571.269 570.858 574.07 570.744C576.642 570.639 577.597 569.723 578.02 569.198C594.869 548.276 602.787 506.853 591.964 450.62C581.875 398.2 558.179 348.49 533.475 319.218Z" fill="black"/>
</svg>
