<svg width="1848" height="1824" viewBox="0 0 1848 1824" fill="none" xmlns="http://www.w3.org/2000/svg">
<path fill-rule="evenodd" clip-rule="evenodd" d="M1843.09 0C1865.14 173.538 1813.3 478.37 1679.97 762.182C1546.19 1046.97 1322.43 1327.27 987.111 1430.15C831.821 1477.8 694.263 1489 575.272 1472.34C521.512 1571 432.144 1645.7 341.63 1699.88C234.419 1764.05 117.135 1804.58 30.5787 1824L0 1687.74C74.5495 1671.02 177.466 1635.39 269.896 1580.06C337.223 1539.76 394.683 1491.64 433.327 1436.52C158.527 1332.73 38.208 1062.23 82.7608 855.05C86.4083 838.089 94.3563 813.868 114.052 793.134L115.02 792.124C156.127 749.654 212.788 741.541 262.663 750.196C312.728 758.884 363.584 784.936 409.553 822.031C502.254 896.838 586.5 1025.45 618.262 1197.35C627.32 1246.37 627.853 1293.06 621.204 1337.15C711.743 1345.68 819.74 1335.44 946.139 1296.65C1228.47 1210.03 1428.21 969.64 1553.56 702.81C1679.37 435.009 1722.3 157.299 1704.54 17.6053L1843.09 0ZM238.782 887.784C228.725 886.039 222.353 886.725 219.071 887.551C218.915 887.59 218.766 887.629 218.623 887.668C190.792 1026.17 273.267 1227.66 484.39 1306.52C487.309 1280.45 486.447 1252.6 480.926 1222.72C454.836 1081.51 386.962 983.253 321.839 930.701C288.896 904.116 259.412 891.364 238.782 887.784Z" fill="black"/>
</svg>
