<svg width="61" height="99" viewBox="0 0 61 99" fill="none" xmlns="http://www.w3.org/2000/svg">
<path d="M30.313 11.1606C30.4736 10.8245 30.6517 10.319 30.9414 10.1387C31.1238 10.5607 31.0318 12.6255 31.1852 13.5932C31.2266 22.7751 32.0329 40.08 38.9567 46.8398C43.2565 51.0378 47.9236 51.6712 53.6344 52.1855C55.431 52.3473 57.2567 52.6071 59.0612 52.5854C59.1911 52.584 59.3211 52.5788 59.4509 52.57C60.1432 52.5595 60.5134 52.451 61 52.9854C52.4492 54.5631 42.8142 54.8856 37.7245 63.0534C32.1861 71.9416 31.2064 85.5372 31.1904 95.6116C30.9842 96.619 30.9959 97.9509 30.9741 99C30.7812 98.217 30.6885 97.4734 30.2025 96.8223C29.216 86.6032 28.9081 70.8511 22.5506 62.3959C17.7639 56.0302 10.7677 54.4632 3.09188 53.6011L3.01605 53.4759C3.004 53.0208 3.04865 52.9702 3.33029 52.6037L4.00128 52.4709C5.32639 52.4653 7.16276 52.2047 8.47752 52.0945C13.5576 51.6681 17.6266 50.7279 21.4279 47.1484C22.7275 45.9246 23.8856 44.7356 24.6935 43.0577C28.0556 36.0749 28.8587 27.5848 29.5702 19.9759C29.8433 17.0554 30.1805 14.0274 30.313 11.1606Z" fill="white"/>
<path d="M30.3659 8.90588C30.4974 7.9361 30.544 0.238174 30.8038 0C30.9664 0.339888 30.8921 1.5945 31.0543 2.20535C31.1345 5.10925 31.4015 10.8048 31.1852 13.5932C31.0318 12.6255 31.1238 10.5607 30.9414 10.1387C30.6517 10.319 30.4736 10.8245 30.313 11.1606L30.3659 8.90588Z" fill="white"/>
<path d="M0 53.0205C0.559725 52.6685 2.55781 52.6493 3.33029 52.6037C3.04865 52.9702 3.004 53.0208 3.01605 53.4759L3.09188 53.6011C2.13897 53.5028 0.959003 53.2226 0 53.0205Z" fill="white"/>
</svg>
