<svg width="2499" height="1928" viewBox="0 0 2499 1928" fill="none" xmlns="http://www.w3.org/2000/svg">
<path d="M1523.79 2.47548C1831.17 -9.4669 2445.39 6.31268 2496.23 412.219C2519.47 597.637 2393.58 734.116 2226.78 790.708C1902.45 900.753 1550.3 878.825 1213.64 912.991C1043.87 930.907 795.599 947.428 666.465 1069.9C645.835 1091.77 637.414 1132.77 641.57 1157.02C684.986 1410.31 1354.88 1300.85 1531.92 1295.36C1588.44 1290.64 1642.1 1290.77 1698.71 1294.36C1808.71 1301.33 1934.37 1352.09 1943.55 1479.14C1957.34 1670.06 1731.63 1704.84 1587.54 1707.54C1536.51 1708.5 1388.94 1696.33 1354.15 1736.9C1357.66 1773.05 1489.3 1759.68 1517.5 1755.73C1526.48 1809.45 1533.64 1867.8 1541.29 1922.03C1429.87 1931.64 1285.84 1943.22 1213.55 1837.85C1179.26 1787.87 1180.41 1714.51 1205.24 1660.69C1247.5 1570.85 1351.19 1547.37 1441.42 1542.34C1493.89 1539.42 1763.49 1551.13 1774.13 1490.68C1748.1 1441.13 1536.33 1462.61 1486.28 1466.38C1232.96 1486.62 827.634 1538.03 609.562 1390.76C542.355 1345.37 495.047 1280.16 479.845 1199.9C465.433 1123.81 478.186 1046.43 522.599 982.279C565.476 920.344 631.764 877.946 699.99 848.487C958.261 736.966 1375.8 735.213 1659.96 717.064C1776.88 709.599 1893.17 698.032 2008.39 676.506C2104.97 658.469 2248.52 626.861 2306.92 539.686C2331.97 502.272 2336.72 456.25 2327.95 412.766C2316.1 353.89 2279.14 312.831 2229.75 280.927C1821.98 17.6687 508.132 280.488 34.7311 381.062L0 217.435C500.651 101.296 1010.54 29.3663 1523.79 2.47548Z" fill="black"/>
</svg>
