<svg width="85" height="73" viewBox="0 0 85 73" fill="none" xmlns="http://www.w3.org/2000/svg">
<path d="M0.596799 4.16371C2.47731 -0.292253 6.16291 0.0128282 10.2494 0.0128282L15.6075 0.0151756L20.5088 0.0086564C22.5035 0.00454952 24.8333 -0.116896 26.685 0.698808C30.0062 2.16183 32.3493 5.64851 35.9965 6.44687C37.5001 6.74648 40.0504 6.72855 41.6101 6.72855L70.7828 6.72868C72.7778 6.72698 78.1108 6.54948 79.8022 7.05619C81.6055 7.58076 83.0651 8.91856 83.7532 10.6775C83.8354 10.8878 83.9235 11.1044 83.9688 11.3253C84.5093 13.6357 84.2089 16.0098 84.3189 18.376C84.1752 18.1624 84.1079 17.1773 84.0102 16.8497C83.3014 14.4874 81.4851 12.7324 79.0409 12.3273C77.8435 12.1289 76.7236 12.1627 75.5184 12.1568L12.5071 12.155C10.5209 12.1542 8.51659 12.1254 6.54682 12.1975C3.98109 12.2912 1.76542 13.5997 0.742698 16.0156C0.405848 16.8112 0.163137 17.4471 0.0134838 18.286C0.0129659 17.9664 0.0247546 16.8037 0.0134917 16.4844C0.0666342 14.1672 -0.0349233 12.4295 0.013494 10.0888C0.0567977 7.99508 -0.0677092 6.21174 0.596799 4.16371Z" fill="#002A74"/>
<path d="M0.013502 17.8356C0.013502 14.6516 2.58592 12.0705 5.75915 12.0705H78.6571C81.8304 12.0705 84.4028 14.6516 84.4028 17.8356V66.478C84.4028 69.662 81.8304 72.2431 78.6571 72.2431H5.75916C2.58592 72.2431 0.013502 69.662 0.013502 66.478V17.8356Z" fill="#043C9F"/>
</svg>
