<svg width="85" height="73" viewBox="0 0 85 73" fill="none" xmlns="http://www.w3.org/2000/svg">
<path d="M0.600972 4.15131C2.49463 -0.291383 6.20601 0.01279 10.3211 0.01279L15.7167 0.0151305L20.6522 0.00863062C22.6609 0.00453597 25.007 -0.116548 26.8716 0.696727C30.216 2.1554 32.5755 5.63169 36.2482 6.42768C37.7623 6.72639 40.3305 6.70852 41.9011 6.70852L71.2778 6.70865C73.2867 6.70696 78.657 6.52998 80.3602 7.03518C82.1762 7.55819 83.646 8.892 84.3389 10.6457C84.4217 10.8554 84.5103 11.0713 84.556 11.2916C85.1002 13.5951 84.7978 15.9621 84.9086 18.3213C84.7639 18.1083 84.6961 17.1261 84.5977 16.7996C83.8839 14.4443 82.0549 12.6945 79.5937 12.2906C78.3878 12.0928 77.2602 12.1265 76.0465 12.1206L12.5946 12.1188C10.5945 12.118 8.57614 12.0893 6.5926 12.1612C4.00893 12.2546 1.77776 13.5593 0.747891 15.9679C0.408686 16.7611 0.164278 17.3951 0.0135781 18.2315C0.0130566 17.9129 0.0249277 16.7537 0.0135861 16.4353C0.0671002 14.125 -0.0351675 12.3925 0.0135883 10.0588C0.0571949 7.97128 -0.0681827 6.19324 0.600972 4.15131Z" fill="#610E2C"/>
<path d="M0.0135964 17.7825C0.0135964 14.608 2.604 12.0346 5.79943 12.0346H79.2072C82.4026 12.0346 84.993 14.608 84.993 17.7825V66.2801C84.993 69.4546 82.4026 72.028 79.2072 72.028H5.79943C2.604 72.028 0.0135964 69.4546 0.0135964 66.2801V17.7825Z" fill="#7B173B"/>
</svg>
