<svg width="87" height="75" viewBox="0 0 87 75" fill="none" xmlns="http://www.w3.org/2000/svg">
<path d="M0.608648 4.28267C2.52649 -0.300603 6.28527 0.0131947 10.4529 0.0131947L15.9174 0.0156092L20.916 0.00890372C22.9503 0.00467951 25.3264 -0.120236 27.2148 0.718773C30.6019 2.2236 32.9916 5.80989 36.7112 6.63107C38.2446 6.93923 40.8456 6.92079 42.4363 6.92079L72.1882 6.92093C74.2227 6.91918 79.6617 6.7366 81.3866 7.25779C83.2258 7.79735 84.7144 9.17337 85.4161 10.9825C85.5 11.1989 85.5897 11.4217 85.6359 11.6489C86.1872 14.0253 85.8809 16.4672 85.9931 18.9011C85.8465 18.6813 85.7779 17.6681 85.6782 17.3311C84.9553 14.9013 83.103 13.0962 80.6103 12.6795C79.389 12.4754 78.247 12.5102 77.0178 12.5041L12.7555 12.5023C10.7298 12.5015 8.68568 12.4719 6.6768 12.546C4.06013 12.6424 1.80047 13.9883 0.757444 16.4732C0.413906 17.2915 0.166376 17.9455 0.0137515 18.8084C0.0132234 18.4797 0.0252461 17.2839 0.0137596 16.9554C0.0679572 14.572 -0.0356167 12.7846 0.0137619 10.3771C0.0579254 8.22351 -0.0690536 6.38921 0.608648 4.28267Z" fill="#FF8AC9"/>
<path d="M0.01377 18.3452C0.01377 15.0702 2.63726 12.4154 5.8735 12.4154H80.2188C83.4551 12.4154 86.0786 15.0702 86.0786 18.3452V68.3774C86.0786 71.6523 83.4551 74.3071 80.2188 74.3071H5.8735C2.63726 74.3071 0.01377 71.6523 0.01377 68.3774V18.3452Z" fill="#FFB1DB"/>
</svg>
