<svg width="2022" height="1725" viewBox="0 0 2022 1725" fill="none" xmlns="http://www.w3.org/2000/svg">
<path d="M14.2972 99.4199C59.3477 -6.97834 147.642 0.306307 245.54 0.306307L373.902 0.36236L491.32 0.206695C539.107 0.108632 594.921 -2.79122 639.28 16.6859C718.844 51.6197 774.977 134.873 862.352 153.937C898.373 161.09 959.47 160.662 996.835 160.662L1695.71 160.666C1743.5 160.625 1871.27 156.387 1911.79 168.486C1954.99 181.011 1989.95 212.955 2006.44 254.954C2008.41 259.975 2010.52 265.148 2011.6 270.423C2024.55 325.59 2017.36 382.277 2019.99 438.778C2016.55 433.677 2014.94 410.155 2012.59 402.333C1995.61 345.927 1952.1 304.021 1893.55 294.349C1864.86 289.61 1838.03 290.417 1809.16 290.277L299.628 290.235C252.045 290.214 204.028 289.528 156.839 291.248C95.3732 293.486 42.2933 324.731 17.7925 382.415C9.72272 401.413 3.90821 416.596 0.323025 436.627C0.310619 428.997 0.593034 401.235 0.323215 393.61C1.59633 338.28 -0.836642 296.787 0.323269 240.898C1.36068 190.904 -1.62208 148.322 14.2972 99.4199Z" fill="#92C70A"/>
<path d="M0.32346 425.873C0.32346 349.848 61.9497 288.217 137.969 288.217H1884.35C1960.37 288.217 2022 349.848 2022 425.873V1587.34C2022 1663.37 1960.37 1725 1884.35 1725H137.97C61.9498 1725 0.32346 1663.37 0.32346 1587.34V425.873Z" fill="#C2F53F"/>
</svg>
