<svg id="Layer_1" data-name="Layer 1" xmlns="http://www.w3.org/2000/svg" viewBox="0 0 112.15515 11.79665"><path d="M112.15515,8.8006c-16.03949-.03888-32.7066-1.02392-48.94855-.42279-8.59.32-17.15576,1.0603-25.701,1.97675-5.97986.4834-11.98243,1.54925-17.98053,1.43335a1.50058,1.50058,0,0,1-.3758-2.83686c3.236-.96228,6.67139-1.22216,9.98023-1.913,6.79522-1.22632,13.6217-2.29785,20.40216-3.605C32.913,4.859,15.33948,7.49225,0,9.61859,11.46783,5.802,26.56049,3.31275,39.58484,1.86127c4.11255-.491,8.23242-.92,12.354-1.32788,2.80518-.14526,5.67249-.83557,8.46509-.38,1.01227.28968,1.90381,1.6164,1.12946,2.549-1.10761,1.166-2.80689,1.49456-4.30445,1.91479-3.47741.77252-6.97455,1.443-10.47961,2.07233,2.56055-.23731,5.12323-.44947,7.69079-.60266C73.6908,4.79621,93.18414,4.96442,112.15515,8.8006Z"/></svg>