<svg id="Layer_1" data-name="Layer 1" xmlns="http://www.w3.org/2000/svg" viewBox="0 0 138.57944 31.33827"><path d="M138.57944,18.54588c-1.46851-.11377-3.6084-.40881-5.35254-.49707a467.56857,467.56857,0,0,0-84.16357,4.19067c-13.61866,1.95471-31.25953,5.60779-46.05591,8.809a4.16243,4.16243,0,0,1-2.23163.17755A1.237,1.237,0,0,1,.109,29.58726c.2843-.73132,1.15924-.83954,1.81323-1.11737,1.21772-.43341,2.45056-.822,3.67835-1.22662C20.02646,22.35514,34.596,17.86753,49.56088,14.934c13.70118-3.003,27.618-4.76843,41.489-6.76764-3.89063-.121-7.78345-.17193-11.67444-.107a219.41845,219.41845,0,0,0-30.3811,2.81787q-2.92512.75585-5.84375,1.53442c-3.73731.984-7.48767,1.917-11.23377,2.86743-2.3291.42176-4.68139,1.585-7.06445,1.28186-1.55359-.54779-1.10108-2.22223.12451-2.83209,3.35059-1.57477,7.054-2.28949,10.63855-3.1463q6.79192-1.455,13.663-2.538c3.83521-.991,7.67676-1.95538,11.5354-2.84106-7.49267.801-14.91955,1.77344-22.24,3.00488C54.88388,2.08415,72.43137,1.11381,89.656.11064a12.653,12.653,0,0,1,2.8136-.02112,1.4014,1.4014,0,0,1,.96215,1.89862c-.60241,1.29388-2.39087.84051-3.55981,1.12738-4.39673.49188-6.93726.8208-11.05566,1.428-2.0354.30395-4.06275.65008-6.08643,1.01355,9.2395-.47577,19.66113-.49426,27.46155.50037a1.45754,1.45754,0,0,1,1.132,1.7564c-.42933,1.20148-1.94092,1.327-3.027,1.57068-1.1825.198-2.9447.53333-4.905.83844-14.13977,2.04651-26.97815,3.47394-41.14661,6.48889a298.88326,298.88326,0,0,0-31.05237,7.81128q9.68793-1.97121,19.4242-3.6889A453.4946,453.4946,0,0,1,95.56711,15.297c13.26062-.47229,26.72913-1.00379,39.69751,2.32586C136.37607,17.90678,137.47507,18.23631,138.57944,18.54588Z"/></svg>